<svg width="28" height="28" viewBox="0 0 28 28" fill="none" xmlns="http://www.w3.org/2000/svg">
<path d="M26.8334 14L23.9867 10.745L24.3834 6.44L20.1717 5.48333L17.9667 1.75L14.0001 3.45333L10.0334 1.75L7.82841 5.47167L3.61675 6.41667L4.01341 10.7333L1.16675 14L4.01341 17.255L3.61675 21.5717L7.82841 22.5283L10.0334 26.25L14.0001 24.535L17.9667 26.2383L20.1717 22.5167L24.3834 21.56L23.9867 17.255L26.8334 14ZM10.9434 18.6783L8.16675 15.8783C7.71175 15.4233 7.71175 14.6883 8.16675 14.2333L8.24841 14.1517C8.70341 13.6967 9.45008 13.6967 9.90508 14.1517L11.7834 16.0417L17.7917 10.0217C18.2467 9.56667 18.9934 9.56667 19.4484 10.0217L19.5301 10.1033C19.9851 10.5583 19.9851 11.2933 19.5301 11.7483L12.6234 18.6783C12.1451 19.1333 11.4101 19.1333 10.9434 18.6783Z" fill="#80BB47"/>
</svg>
